<?xml version="1.0" encoding="UTF-8" standalone="no"?>
<!-- Created with Inkscape (http://www.inkscape.org/) -->

<svg
   xmlns:dc="http://purl.org/dc/elements/1.1/"
   xmlns:cc="http://creativecommons.org/ns#"
   xmlns:rdf="http://www.w3.org/1999/02/22-rdf-syntax-ns#"
   xmlns:svg="http://www.w3.org/2000/svg"
   xmlns="http://www.w3.org/2000/svg"
   xmlns:xlink="http://www.w3.org/1999/xlink"
   version="1.1"
   width="64"
   height="64"
   id="svg8204">
  <defs
     id="defs8206">
    <linearGradient
       x1="103.21934"
       y1="354.77545"
       x2="575.70758"
       y2="354.77545"
       id="linearGradient3693"
       xlink:href="#linearGradient3616"
       gradientUnits="userSpaceOnUse"
       gradientTransform="scale(1.0530018,0.94966598)" />
    <linearGradient
       id="linearGradient3616">
      <stop
         id="stop3618"
         style="stop-color:#ffd42a;stop-opacity:1"
         offset="0" />
      <stop
         id="stop3620"
         style="stop-color:#fff6d5;stop-opacity:1"
         offset="1" />
    </linearGradient>
  </defs>
  <metadata
     id="metadata8209">
    <rdf:RDF>
      <cc:Work
         rdf:about="">
        <dc:format>image/svg+xml</dc:format>
        <dc:type
           rdf:resource="http://purl.org/dc/dcmitype/StillImage" />
        <dc:title></dc:title>
      </cc:Work>
    </rdf:RDF>
  </metadata>
  <g
     id="layer1">
    <path
       d="m 26.545454,33.727272 a 4.181818,17.181818 0 1 1 -8.363636,0 4.181818,17.181818 0 1 1 8.363636,0 z"
       transform="matrix(0.37792989,-0.77146312,0.64382606,0.51022928,2.2790017,35.924118)"
       id="path8212"
       style="fill:#ff6100;fill-opacity:1;fill-rule:evenodd;stroke:#000000;stroke-width:1.25;stroke-miterlimit:4;stroke-opacity:1;stroke-dasharray:none" />
    <g
       transform="matrix(0.12280204,0,0,0.12280486,-0.86645986,-1.31261)"
       id="g17">
      <title
         id="title19">Layer 1</title>
      <g
         id="layer1-2">
        <g
           id="g3685">
          <g
             id="g3676"
             style="opacity:0.46634599">
            <path
               d="M 287.38278,20.843035 C 196.66036,83.795212 105.8947,146.68535 15.198932,209.67598 62.379135,277.7009 109.52197,345.75165 156.75179,413.74203 248.47778,350.06821 340.31976,286.55722 431.95352,222.75345 436.42841,187.53365 448.77225,150.41307 448.47998,116.26546 428.47321,90.642693 412.8374,58.219589 390.13434,36.794678 356.24643,32.626007 320.14319,20.296831 287.38278,20.843035 z m 88.81183,75.159536 c 20.49356,-1.641701 17.18756,33.670719 -3.16159,27.017199 -14.72665,-3.81333 -12.03543,-26.41205 3.16159,-27.017199 z"
               id="path3624"
               style="opacity:0.34615401;fill:#000000;fill-rule:evenodd" />
            <path
               d="M 288.96356,26.592497 C 200.30212,88.11348 111.59101,149.56093 22.958961,211.11418 c 45.059608,64.96999 90.128879,129.9355 135.229909,194.8687 89.52924,-62.14185 179.16651,-124.13184 268.59226,-186.38876 4.71823,-34.67389 15.85165,-70.10674 15.95285,-101.7501 C 423.19879,92.321168 407.8208,61.915032 387.26016,41.965936 353.71744,37.541848 319.27808,26.449912 288.96356,26.592498 z m 86.79993,63.806566 c 0.0506,-0.0045 0.092,0.0045 0.14258,0 6.63586,-0.482773 12.52679,2.418907 15.81018,6.750931 3.30649,4.368516 4.263,9.693866 3.73419,14.803096 -0.52887,5.10895 -2.6351,10.28723 -6.89801,13.79602 -4.19864,3.45826 -10.54019,4.58491 -16.95535,2.58899 l 0,0.14258 c -0.11493,-0.0275 -0.17935,-0.11506 -0.28968,-0.14258 -9.7998,-2.72709 -14.49041,-12.36117 -13.50634,-20.69402 0.98877,-8.387861 7.70279,-16.762243 17.96243,-17.245016 l 0,0 z"
               id="path3670"
               style="opacity:0.34615401;fill:#000000;fill-rule:evenodd" />
            <path
               d="M 290.11325,30.326672 C 202.83646,90.886605 115.52194,151.39125 28.276404,211.9742 71.888352,274.86096 115.40238,337.8168 159.05112,400.66232 247.17549,339.49976 335.46069,278.56735 423.4747,217.29477 428.33554,183.13594 438.65955,148.96785 438.99524,118.99368 419.72223,93.544648 404.53278,64.448739 385.25058,45.414941 352.1217,40.85753 318.77676,30.483012 290.11325,30.326673 z m 85.3605,56.333729 c 0.1012,-0.0093 0.19318,0.0045 0.28974,0 7.67059,-0.510559 14.99164,2.938446 18.96951,8.190254 4.02848,5.320585 5.21491,11.593235 4.5987,17.534685 -0.61624,5.94144 -3.10413,11.92892 -8.3328,16.23794 -5.09994,4.20318 -12.93142,5.49993 -20.26632,3.30641 l 0,0.14259 c -0.11039,-0.0275 -0.17481,-0.11031 -0.28516,-0.14259 -0.0966,-0.0323 -0.19312,0.0323 -0.28967,0 l 0,-0.14258 c -11.42316,-3.33392 -17.24503,-14.80759 -16.09537,-24.57528 1.16342,-9.868728 9.34906,-19.912322 21.41138,-20.551429 l 0,0 z"
               id="path3672"
               style="opacity:0.34615401;fill:#000000;fill-rule:evenodd" />
          </g>
          <path
             d="m 390.03476,128.74989 c -10.43457,7.23735 -24.76065,4.64556 -31.99808,-5.78903 -7.23749,-10.43459 -4.64575,-24.760528 5.78891,-31.998153 10.43451,-7.23735 24.76059,-4.645546 31.99802,5.789032 7.23749,10.434581 4.64575,24.760801 -5.78885,31.998151 z M 292.51361,28.493582 388.50787,45.860134 440.92624,121.43395 423.55975,217.42842 159.05101,400.89307 28.004915,211.95824 292.51361,28.493581 z"
             id="path2820"
             style="fill:url(#linearGradient3693);fill-rule:evenodd" />
        </g>
      </g>
    </g>
    <path
       d="m 42.000002,52.090908 a 6.818182,12.272727 0 1 1 -13.636364,0 6.818182,12.272727 0 1 1 13.636364,0 z"
       transform="matrix(0.69102373,-0.07278922,0.0807451,0.62293792,14.783331,24.043386)"
       id="path8218"
       style="fill:none;stroke:#000000;stroke-width:3.74999809;stroke-miterlimit:4;stroke-opacity:1;stroke-dasharray:none" />
    <text
       x="-1.827369"
       y="47.171471"
       transform="matrix(0.80795449,-0.58924489,0.58924489,0.80795449,0,0)"
       id="text3020"
       xml:space="preserve"
       style="font-size:14px;font-style:normal;font-variant:normal;font-weight:normal;font-stretch:normal;line-height:125%;letter-spacing:0px;word-spacing:-3.26999998px;fill:#000000;fill-opacity:1;stroke:none;font-family:Arial;-inkscape-font-specification:Arial"><tspan
         x="-1.827369"
         y="47.171471"
         id="tspan3022"
         style="font-size:32px;font-weight:bold;-inkscape-font-specification:Arial Bold">#</tspan></text>
    <path
       d="m 26.545454,33.727272 a 4.181818,17.181818 0 1 1 -8.363636,0 4.181818,17.181818 0 1 1 8.363636,0 z"
       transform="matrix(0.78859718,-0.40191861,0.18545381,0.81260657,15.626603,12.75804)"
       id="path8214"
       style="fill:#ff6100;fill-opacity:1;fill-rule:evenodd;stroke:#000000;stroke-width:1.25;stroke-miterlimit:4;stroke-opacity:1;stroke-dasharray:none" />
    <path
       d="m 42.000002,52.090908 a 6.818182,12.272727 0 1 1 -13.636364,0 6.818182,12.272727 0 1 1 13.636364,0 z"
       transform="matrix(0.34134686,-0.66108638,0.68598187,0.32895856,5.4589187,53.994066)"
       id="path8222"
       style="fill:none;stroke:#000000;stroke-width:3.74999952;stroke-miterlimit:4;stroke-opacity:1;stroke-dasharray:none" />
    <path
       d="m 30.181819,32.727272 a 0.90909094,0.54545456 0 1 1 -1.818182,0 0.90909094,0.54545456 0 1 1 1.818182,0 z"
       transform="matrix(0.73840969,0,0,0.73840969,19.90265,15.61899)"
       id="path8224"
       style="fill:none;stroke:#000000;stroke-width:3.74999976;stroke-miterlimit:4;stroke-opacity:1;stroke-dasharray:none" />
  </g>
</svg>
