<?xml version="1.0" encoding="UTF-8" standalone="no"?>
<!-- Generator: Adobe Illustrator 16.0.0, SVG Export Plug-In . SVG Version: 6.00 Build 0)  -->

<svg
   xmlns:dc="http://purl.org/dc/elements/1.1/"
   xmlns:cc="http://creativecommons.org/ns#"
   xmlns:rdf="http://www.w3.org/1999/02/22-rdf-syntax-ns#"
   xmlns:svg="http://www.w3.org/2000/svg"
   xmlns="http://www.w3.org/2000/svg"
   xmlns:sodipodi="http://sodipodi.sourceforge.net/DTD/sodipodi-0.dtd"
   xmlns:inkscape="http://www.inkscape.org/namespaces/inkscape"
   version="1.1"
   id="Layer_1"
   x="0px"
   y="0px"
   width="48"
   height="48"
   viewBox="108.5 0 48 48"
   enable-background="new 108.5 0 783 700"
   xml:space="preserve"
   inkscape:version="0.48.4 r9939"
   sodipodi:docname="microdata.svg"><metadata
     id="metadata29"><rdf:RDF><cc:Work
         rdf:about=""><dc:format>image/svg+xml</dc:format><dc:type
           rdf:resource="http://purl.org/dc/dcmitype/StillImage" /></cc:Work></rdf:RDF></metadata><defs
     id="defs27" /><sodipodi:namedview
     pagecolor="#ffffff"
     bordercolor="#666666"
     borderopacity="1"
     objecttolerance="10"
     gridtolerance="10"
     guidetolerance="10"
     inkscape:pageopacity="0"
     inkscape:pageshadow="2"
     inkscape:window-width="1440"
     inkscape:window-height="876"
     id="namedview25"
     showgrid="false"
     fit-margin-top="1"
     fit-margin-left="1"
     fit-margin-right="1"
     fit-margin-bottom="1"
     inkscape:zoom="15.257344"
     inkscape:cx="25.204692"
     inkscape:cy="27.435438"
     inkscape:window-x="0"
     inkscape:window-y="24"
     inkscape:window-maximized="1"
     inkscape:current-layer="Layer_1" /><title
     id="title3">HTML5 Logo</title><g
     id="g3006"
     transform="translate(2.71976,-3.17071e-6)"><polygon
       transform="matrix(0.08178737,0,0,0.08178737,88.886555,-10.251157)"
       style="fill:#e44d26"
       id="polygon5"
       points="702.782,643.698 499.696,700 297.169,643.777 252.037,137.566 747.963,137.566 " /><polygon
       transform="matrix(0.08178737,0,0,0.08178737,88.886555,-10.251157)"
       style="fill:#f16529"
       id="polygon7"
       points="702.713,178.957 500,178.957 500,656.965 664.104,611.469 " /><polygon
       transform="matrix(0.08178737,0,0,0.08178737,88.886555,-10.251157)"
       style="fill:#ebebeb"
       id="polygon9"
       points="361.066,428.787 500,428.787 500,366.703 417.846,366.703 412.172,303.127 500,303.127 500,241.042 499.785,241.042 344.321,241.042 345.807,257.698 " /><polygon
       transform="matrix(0.08178737,0,0,0.08178737,88.886555,-10.251157)"
       style="fill:#ebebeb"
       id="polygon11"
       points="500,527.943 499.728,528.016 430.584,509.346 426.164,459.83 392.565,459.83 363.84,459.83 372.539,557.313 499.714,592.617 500,592.538 " /><polygon
       transform="matrix(0.08178737,0,0,0.08178737,88.886555,-10.251157)"
       style="fill:#ffffff"
       id="polygon21"
       points="627.996,546.823 642.585,383.374 644.101,366.703 627.37,366.703 499.785,366.703 499.785,428.787 576.235,428.787 569.029,509.306 499.785,527.995 499.785,592.587 627.063,557.313 " /><polygon
       transform="matrix(0.08178737,0,0,0.08178737,88.886555,-10.251157)"
       style="fill:#ffffff"
       id="polygon23"
       points="653.823,257.698 655.309,241.042 499.785,241.042 499.785,279.602 499.785,302.976 499.785,303.127 649.55,303.127 649.55,303.127 649.749,303.127 650.995,289.172 " /></g></svg>